<?xml version="1.0" encoding="utf-8"?>

<!DOCTYPE svg PUBLIC "-//W3C//DTD SVG 1.1//EN" "http://www.w3.org/Graphics/SVG/1.1/DTD/svg11.dtd">
<!-- Uploaded to: SVG Repo, www.svgrepo.com, Generator: SVG Repo Mixer Tools -->
<svg height="800px" width="800px" version="1.1" id="_x32_" xmlns="http://www.w3.org/2000/svg" xmlns:xlink="http://www.w3.org/1999/xlink" 
	 viewBox="0 0 512 512"  xml:space="preserve">
<style type="text/css">
	.st0{fill:#000000;}
</style>
<g>
	<path class="st0" d="M197.336,71.465c0-7.21-5.89-13.099-13.099-13.099c-7.246,0-13.098,5.89-13.098,13.099v108.888
		c8.331-4.813,17.088-8.902,26.197-12.249V71.465z"/>
	<path class="st0" d="M340.852,71.465c0-7.21-5.898-13.099-13.098-13.099c-7.246,0-13.099,5.89-13.099,13.099v96.639
		c9.1,3.347,17.866,7.436,26.197,12.249V71.465z"/>
	<path class="st0" d="M389.701,201.9V61.939c0-17.061-6.957-32.63-18.147-43.792C360.682,7.255,345.629,0.425,329.101,0.072
		c-0.408-0.044-0.86-0.063-1.348-0.072c-17.061-0.008-32.63,6.957-43.801,18.147c-11.182,11.163-18.146,26.732-18.137,43.792v82.555
		c-3.248-0.182-6.514-0.308-9.815-0.308c-3.311,0-6.568,0.126-9.815,0.308V61.939c0.009-17.061-6.957-32.63-18.138-43.802
		C217.174,7.247,202.103,0.417,185.576,0.064c-0.371-0.036-0.786-0.055-1.238-0.055c-0.028,0-0.055-0.009-0.091-0.009
		c0,0,0,0-0.01,0c-17.052-0.008-32.628,6.957-43.792,18.138c-11.182,11.172-18.146,26.741-18.146,43.802v139.952
		c-31.083,32.9-50.215,77.362-50.206,126.202c-0.01,50.739,20.607,96.802,53.86,130.038C159.188,491.393,205.252,512,255.982,512
		H256c50.73,0.009,96.793-20.607,130.028-53.861c33.262-33.234,53.878-79.298,53.878-130.037
		C439.907,279.262,420.774,234.801,389.701,201.9z M366.887,438.99c-28.423,28.404-67.538,45.927-110.887,45.935h-0.009
		c-43.349-0.008-82.473-17.54-110.896-45.945c-28.395-28.423-45.918-67.538-45.927-110.887
		c0.009-43.494,17.649-82.718,46.217-111.168l3.998-3.971V61.939c0-9.671,3.881-18.3,10.204-24.651
		c6.35-6.332,14.98-10.203,24.65-10.212h0.01c9.67,0.009,18.3,3.88,24.65,10.212c6.332,6.351,10.204,14.98,10.213,24.651v112.949
		l15.378-2.117c7.084-0.968,14.248-1.502,21.512-1.502c7.255,0,14.428,0.534,21.512,1.502l15.378,2.117V61.939
		c0.009-9.661,3.89-18.3,10.213-24.651c6.342-6.314,14.944-10.186,24.587-10.203h0.064c9.679,0.008,18.309,3.88,24.66,10.213
		c6.332,6.341,10.204,14.98,10.204,24.642v151.024l3.988,3.971c28.558,28.441,46.208,67.665,46.217,111.168
		C412.814,371.45,395.292,410.566,366.887,438.99z"/>
	<path class="st0" d="M202.953,307.957c0-9.625-7.807-17.423-17.422-17.423c-9.626,0-17.432,7.798-17.432,17.423
		c0,9.624,7.807,17.422,17.432,17.422C195.146,325.379,202.953,317.581,202.953,307.957z"/>
	<path class="st0" d="M326.469,290.534c-9.626,0-17.423,7.798-17.423,17.423c0,9.624,7.798,17.422,17.423,17.422
		c9.625,0,17.423-7.798,17.423-17.422C343.892,298.332,336.094,290.534,326.469,290.534z"/>
	<path class="st0" d="M307.888,365.327c-3.736,0-6.766,3.031-6.766,6.766c0,5.319-2.135,10.078-5.618,13.569
		c-3.491,3.474-8.24,5.609-13.559,5.618c-5.32-0.01-10.068-2.144-13.57-5.618c-2.46-2.479-4.233-5.608-5.066-9.1
		c10.113-3.121,17.468-12.547,17.468-23.682c0-13.687-11.1-24.786-24.777-24.786c-13.696,0-24.786,11.099-24.786,24.786
		c0,11.135,7.354,20.562,17.477,23.682c-0.832,3.492-2.614,6.621-5.084,9.1c-3.492,3.474-8.25,5.609-13.56,5.618
		c-5.319-0.01-10.068-2.144-13.56-5.618c-3.483-3.491-5.618-8.25-5.627-13.569c0-3.736-3.021-6.766-6.766-6.766
		c-3.737,0-6.767,3.031-6.767,6.766c0,18.074,14.646,32.72,32.72,32.72c10.584,0,19.965-5.048,25.954-12.845
		c5.97,7.798,15.36,12.845,25.944,12.845c18.073,0,32.71-14.645,32.72-32.72C314.664,368.358,311.633,365.327,307.888,365.327z"/>
</g>
</svg>