<?xml version="1.0" encoding="iso-8859-1"?><!-- Uploaded to: SVG Repo, www.svgrepo.com, Generator: SVG Repo Mixer Tools -->
<svg fill="#000000" height="800px" id="Layer_1" version="1.1" viewBox="0 0 512 512" width="800px" xmlns="http://www.w3.org/2000/svg" xml:space="preserve">
<g>
	<g>
		<path d="M292.573,36.321c-120.99,0-219.427,98.437-219.427,219.427c0,85.843,49.58,160.285,121.582,196.32
			c-68.904-10.897-156.356-42.947-176.653-134.303c-1.098-4.933-5.973-8.022-10.911-6.942c-4.928,1.094-8.036,5.978-6.946,10.906
			c31.5,141.718,205.4,153.95,264.373,153.95c11.902,0,19.125-0.5,19.545-0.531c0.219-0.017,0.393-0.14,0.607-0.172
			c2.603,0.091,5.205,0.199,7.83,0.199c120.99,0,219.427-98.437,219.427-219.427S413.563,36.321,292.573,36.321z M292.573,456.889
			c-110.91,0-201.142-90.232-201.142-201.142S181.663,54.606,292.573,54.606s201.142,90.232,201.142,201.142
			S403.483,456.889,292.573,456.889z" />
	</g>
</g>
    <g>
	<g>
		<path d="M210.288,264.891c-35.285,0-64,28.71-64,64c0,35.29,28.714,64,64,64c35.286,0,64-28.71,64-64
			C274.287,293.6,245.573,264.891,210.288,264.891z M210.288,374.604c-25.205,0-45.714-20.509-45.714-45.714
			c0-25.205,20.509-45.714,45.714-45.714s45.714,20.509,45.714,45.714C256.002,354.095,235.493,374.604,210.288,374.604z" />
	</g>
</g>
    <g>
	<g>
		<path d="M374.858,264.891c-35.285,0-64,28.71-64,64c0,35.29,28.714,64,64,64c35.286,0,64-28.71,64-64
			C438.858,293.6,410.143,264.891,374.858,264.891z M374.858,374.604c-25.205,0-45.714-20.509-45.714-45.714
			c0-25.205,20.509-45.714,45.714-45.714c25.205,0,45.714,20.509,45.714,45.714C420.572,354.095,400.063,374.604,374.858,374.604z" />
	</g>
</g>
    <g>
	<g>
		<path d="M210.288,118.606c-35.285,0-64,28.71-64,64c0,35.29,28.714,64,64,64c35.286,0,64-28.71,64-64
			C274.287,147.315,245.573,118.606,210.288,118.606z M210.288,228.319c-25.205,0-45.714-20.509-45.714-45.714
			c0-25.205,20.509-45.714,45.714-45.714s45.714,20.509,45.714,45.714C256.002,207.81,235.493,228.319,210.288,228.319z" />
	</g>
</g>
    <g>
	<g>
		<path d="M374.858,118.606c-35.285,0-64,28.71-64,64c0,35.29,28.714,64,64,64c35.286,0,64-28.71,64-64
			C438.858,147.315,410.143,118.606,374.858,118.606z M374.858,228.319c-25.205,0-45.714-20.509-45.714-45.714
			c0-25.205,20.509-45.714,45.714-45.714c25.205,0,45.714,20.509,45.714,45.714C420.572,207.81,400.063,228.319,374.858,228.319z" />
	</g>
</g>
</svg>