<?xml version="1.0" encoding="iso-8859-1"?>
<!-- Uploaded to: SVG Repo, www.svgrepo.com, Generator: SVG Repo Mixer Tools -->
<svg fill="#000000" height="800px" width="800px" version="1.1" id="Layer_1" xmlns="http://www.w3.org/2000/svg" xmlns:xlink="http://www.w3.org/1999/xlink" 
	 viewBox="0 0 511.999 511.999" xml:space="preserve">
<g>
	<g>
		<path d="M408.723,168.189l-7.703-7.703c-3.19-3.189-8.363-3.189-11.554,0c-3.191,3.192-3.191,8.364,0,11.555l7.703,7.703
			c1.595,1.595,3.686,2.392,5.777,2.392c2.09,0,4.182-0.797,5.777-2.392C411.913,176.552,411.913,171.38,408.723,168.189z"/>
	</g>
</g>
<g>
	<g>
		<path d="M202.671,123.897l-7.704-7.702c-3.191-3.19-8.364-3.191-11.554,0.001c-3.191,3.191-3.19,8.364,0.001,11.554l7.703,7.702
			c1.595,1.595,3.685,2.392,5.777,2.392c2.092,0,4.182-0.797,5.778-2.393C205.862,132.26,205.861,127.087,202.671,123.897z"/>
	</g>
</g>
<g>
	<g>
		<path d="M435.685,326.102c-0.003-0.003-25.173-25.173-25.173-25.173c64.38-70.443,62.506-180.138-5.64-248.284
			C370.923,18.697,325.785,0,277.774,0c-45.278,0-87.996,16.636-121.188,47.003L119.864,10.28c-3.191-3.19-8.364-3.19-11.554,0
			c-3.191,3.192-3.191,8.364,0,11.555l5.893,5.893c-81.352,87.457-79.475,224.79,5.66,309.926
			c41.462,41.461,95.307,63.164,149.74,65.139v16.609h-8.17c-3.516,0-6.639,2.25-7.751,5.586l-9.032,27.095h-43.132
			c-25.751,0-47.164,18.911-51.093,43.574h-3.375c-4.512,0-8.17,3.657-8.17,8.17c0,4.513,3.658,8.17,8.17,8.17h261.446
			c4.512,0,8.17-3.657,8.17-8.17c0-4.513-3.658-8.17-8.17-8.17h-3.375c-3.929-24.663-25.342-43.574-51.093-43.574h-43.132
			l-9.032-27.095c-1.112-3.337-4.234-5.586-7.751-5.586h-8.17v-16.609c51.893-1.882,103.242-21.709,143.846-59.479l5.895,5.893
			c1.595,1.595,3.686,2.392,5.777,2.392c2.091,0,4.182-0.797,5.777-2.392c3.191-3.192,3.191-8.364,0-11.555L435.685,326.102z
			 M290.483,16.831c33.515,2.56,65.002,15.227,90.895,36.533c1.439,1.522,2.237,3.499,2.237,5.604c0,2.182-0.85,4.234-2.393,5.777
			l-26.417,26.417l-13.48-13.48c-1.532-1.532-3.61-2.392-5.777-2.392c-2.167,0-4.245,0.861-5.777,2.392l-71.253,71.252
			l-11.555-11.555l17.332-17.331c3.191-3.191,3.191-8.364,0-11.554c-1.544-1.544-2.393-3.596-2.393-5.778
			c0-2.183,0.85-4.234,2.393-5.777l7.703-7.703c3.191-3.192,3.191-8.364,0-11.555l-21.182-21.183L290.483,16.831z M192.949,40.02
			c22.452-13.687,47.907-21.715,74.588-23.354l-45.608,45.608c-3.191,3.192-3.191,8.364,0,11.555
			c1.595,1.595,3.686,2.392,5.777,2.392s4.182-0.797,5.777-2.392l5.777-5.777l15.407,15.406l-1.926,1.926
			c-4.63,4.63-7.179,10.784-7.179,17.332c0,3.72,0.824,7.314,2.383,10.572l-18.313,18.313c-1.533,1.533-2.393,3.61-2.393,5.778
			c0,2.168,0.861,4.244,2.393,5.778l17.331,17.332l-9.628,9.628c-3.191,3.192-3.191,8.364,0,11.555
			c1.595,1.595,3.686,2.392,5.777,2.392c2.091,0,4.182-0.797,5.777-2.392l15.4-15.4c0.011-0.011,48.15-48.15,48.15-48.15
			l11.555,11.554l-55.847,55.847c-11.68,11.681-11.68,30.686,0,42.367c11.68,11.68,30.685,11.679,42.366,0l1.926-1.927
			l21.183,21.182c5.641,5.641,13.164,8.748,21.183,8.748c8.019,0,15.542-3.108,21.183-8.748l26.96-26.959
			c1.533-1.533,2.393-3.61,2.393-5.778c0-2.168-0.861-4.244-2.393-5.778l-25.034-25.035c-3.191-3.189-8.364-3.191-11.554,0
			c-3.191,3.192-3.191,8.364,0,11.555l19.258,19.258l-21.184,21.183c-2.555,2.555-5.974,3.962-9.629,3.962
			c-3.655,0-7.074-1.407-9.629-3.963l-26.961-26.959c-3.191-3.19-8.364-3.19-11.554,0l-7.703,7.703
			c-5.311,5.308-13.949,5.308-19.258,0c-2.572-2.571-3.988-5.991-3.988-9.629c0-3.636,1.416-7.057,3.988-9.628l44.292-44.292
			l19.258,19.257c1.595,1.595,3.686,2.392,5.777,2.392c2.09,0,4.182-0.797,5.777-2.392c3.191-3.192,3.191-8.364,0-11.555
			l-19.257-19.257l5.777-5.777c1.533-1.533,2.393-3.61,2.393-5.778c0-2.168-0.861-4.244-2.393-5.778l-17.332-17.331l11.554-11.554
			l13.474,13.474c0.012,0.012,19.263,19.264,19.263,19.264c3.19,3.19,8.363,3.19,11.554,0c3.191-3.192,3.191-8.364,0-11.555
			l-13.48-13.48l26.417-26.418c2.162-2.163,3.851-4.668,5.058-7.381c50.154,54.278,56.694,134.567,19.624,195.632
			c-15.443-7.84-34.468-5.148-47.247,7.631c-12.789,12.789-15.474,31.839-7.609,47.289c-24.846,15.146-53.371,23.363-83.164,23.659
			l-2.984-30.794c-1.337-13.796-10.061-32.279-19.861-42.081l-23.109-23.109c-3.191-3.19-8.364-3.19-11.554,0l-46.218,46.218
			c-2.602,2.602-4.652,5.599-6.117,8.84c-2.511-2.224-4.971-4.522-7.363-6.914c-4.56-4.56-8.782-9.33-12.689-14.271l39.649-39.649
			l1.926,1.926c1.595,1.595,3.686,2.392,5.777,2.392s4.182-0.797,5.777-2.392c3.191-3.192,3.191-8.364,0-11.555l-7.704-7.704
			l-77.19-77.19c3.691-18.093,10.462-35.674,20.311-51.9c5.79,2.94,12.084,4.4,18.367,4.4c10.468,0,20.898-4.05,28.884-12.036
			C198.129,74.52,200.815,55.469,192.949,40.02z M408.132,278.273c-4.484,5.924-9.414,11.616-14.813,17.016
			c-5.374,5.372-11.06,10.314-17.009,14.829c-3.561-8.871-1.681-19.248,5.454-26.384
			C388.895,276.601,399.265,274.721,408.132,278.273z M262.958,342.478c-28.866-2.577-56.162-12.665-79.595-29.322
			c0.304-3.096,1.655-5.991,3.902-8.239l40.44-40.44l17.332,17.331c7.104,7.104,14.183,22.105,15.153,32.103L262.958,342.478z
			 M139.935,267.513c-19.325-30.342-27.66-65.713-24.995-100.396l62.696,62.696L139.935,267.513z M162.23,64.201
			c5.373-5.373,11.059-10.315,17.008-14.831c3.561,8.871,1.682,19.249-5.454,26.384c-7.132,7.132-17.5,9.013-26.368,5.461
			C151.901,75.292,156.832,69.6,162.23,64.201z M288.225,435.745l5.447,16.34h-10.451c-4.512,0-8.17,3.657-8.17,8.17
			c0,4.513,3.658,8.17,8.17,8.17h70.808c16.71,0,30.743,11.64,34.442,27.234H167.077c3.699-15.594,17.733-27.234,34.442-27.234
			h49.021c3.516,0,6.639-2.25,7.751-5.586l9.032-27.094H288.225z M131.418,326.101c-78.765-78.765-80.639-205.732-5.653-286.809
			l19.27,19.269c-64.379,70.443-62.504,180.137,5.642,248.283c33.949,33.949,79.086,52.644,127.097,52.644
			c45.278,0,87.995-16.633,121.187-47l19.267,19.267C337.151,406.739,210.184,404.866,131.418,326.101z"/>
	</g>
</g>
</svg>